<?xml version="1.0" encoding="utf-8"?>
<!-- Generator: Adobe Illustrator 21.0.0, SVG Export Plug-In . SVG Version: 6.00 Build 0)  -->
<svg version="1.1" id="Layer_1" xmlns="http://www.w3.org/2000/svg" xmlns:xlink="http://www.w3.org/1999/xlink" x="0px" y="0px"
	 viewBox="0 0 108.7 105.3" style="enable-background:new 0 0 108.7 105.3;" xml:space="preserve">
<style type="text/css">
	.st0{fill:#FFFFFF;}
	.st1{fill:#3D3D3D;}
	.st2{fill:#C71E46;}
</style>
<g>
	<polygon class="st0" points="54.3,5 12,47.3 42,77.3 42.8,77.3 42.8,37.7 46.9,37.7 46.9,77.3 51.9,77.3 51.9,27.4 56.1,27.4 
		56.1,77.3 61.7,77.3 61.7,37.7 65.9,37.7 65.9,77.3 66.6,77.3 96.6,47.3 	"/>
	<g>
		<g>
			<path class="st0" d="M8.5,90.4c0-1,0.3-1.8,0.8-2.4c0.5-0.6,1.2-0.8,2.2-0.8c1,0,1.7,0.3,2.2,0.8c0.5,0.6,0.8,1.4,0.8,2.4v0.4
				h-1.9v-0.5c0-0.8-0.3-1.3-1-1.3c-0.7,0-1,0.4-1,1.3c0,0.5,0.1,0.9,0.4,1.3c0.3,0.4,0.7,0.9,1.3,1.5c0.8,0.7,1.4,1.4,1.7,2
				c0.3,0.6,0.5,1.3,0.5,2c0,1-0.3,1.8-0.8,2.4c-0.5,0.6-1.3,0.8-2.2,0.8c-1,0-1.7-0.3-2.2-0.8c-0.5-0.6-0.8-1.4-0.8-2.4v-0.8h1.9
				v0.9c0,0.8,0.3,1.2,1,1.2c0.7,0,1-0.4,1-1.2c0-0.5-0.1-0.9-0.4-1.3c-0.3-0.4-0.7-0.9-1.4-1.5c-0.8-0.7-1.4-1.4-1.7-2
				C8.7,91.8,8.5,91.1,8.5,90.4z"/>
			<path class="st0" d="M15.5,97.1v-6.7c0-1,0.3-1.8,0.8-2.4c0.5-0.6,1.3-0.8,2.3-0.8c1,0,1.8,0.3,2.3,0.8c0.5,0.6,0.8,1.4,0.8,2.4
				v6.7c0,1-0.3,1.8-0.8,2.4c-0.5,0.6-1.3,0.8-2.3,0.8c-1,0-1.8-0.3-2.3-0.8C15.7,98.9,15.5,98.1,15.5,97.1z M17.5,90.3v6.9
				c0,0.8,0.3,1.3,1,1.3c0.7,0,1-0.4,1-1.3v-6.9c0-0.8-0.3-1.3-1-1.3C17.8,89,17.5,89.4,17.5,90.3z"/>
			<path class="st0" d="M22.7,90.4c0-1,0.3-1.8,0.8-2.4c0.5-0.6,1.2-0.8,2.2-0.8c1,0,1.7,0.3,2.2,0.8c0.5,0.6,0.8,1.4,0.8,2.4v0.4
				h-1.9v-0.5c0-0.8-0.3-1.3-1-1.3c-0.7,0-1,0.4-1,1.3c0,0.5,0.1,0.9,0.4,1.3c0.3,0.4,0.7,0.9,1.3,1.5c0.8,0.7,1.4,1.4,1.7,2
				c0.3,0.6,0.5,1.3,0.5,2c0,1-0.3,1.8-0.8,2.4c-0.5,0.6-1.3,0.8-2.2,0.8c-1,0-1.7-0.3-2.2-0.8c-0.5-0.6-0.8-1.4-0.8-2.4v-0.8h1.9
				v0.9c0,0.8,0.3,1.2,1,1.2c0.7,0,1-0.4,1-1.2c0-0.5-0.1-0.9-0.4-1.3c-0.3-0.4-0.7-0.9-1.4-1.5c-0.8-0.7-1.4-1.4-1.7-2
				C22.8,91.8,22.7,91.1,22.7,90.4z"/>
			<path class="st0" d="M32.6,87.3l1.5,9.1h0l1.4-9.1h2.8v12.9h-1.9v-9.2h0l-1.4,9.2H33l-1.5-9.1h0v9.1h-1.8V87.3H32.6z"/>
			<path class="st0" d="M44.2,87.3l2.1,12.9h-2l-0.3-2.3h-2.5l-0.3,2.3h-1.9l2.1-12.9H44.2z M42.6,89.6l-1,6.5h1.9L42.6,89.6
				L42.6,89.6z"/>
			<path class="st0" d="M52.8,87.3l1.5,9.1h0l1.4-9.1h2.8v12.9h-1.9v-9.2h0l-1.4,9.2h-1.9l-1.5-9.1h0v9.1H50V87.3H52.8z"/>
			<path class="st0" d="M59.9,87.3h2v9.9c0,0.8,0.3,1.2,1,1.2c0.7,0,1-0.4,1-1.2v-9.9h1.9v9.8c0,1-0.3,1.8-0.8,2.4
				c-0.5,0.6-1.3,0.8-2.2,0.8c-1,0-1.7-0.3-2.2-0.8c-0.5-0.6-0.8-1.4-0.8-2.4V87.3z"/>
			<path class="st0" d="M69.3,89.1v3.6h2.8v1.8h-2.8v3.8h3.5v1.8h-5.5V87.3h5.5v1.8H69.3z"/>
			<path class="st0" d="M77.1,87.3c1,0,1.8,0.2,2.3,0.7c0.5,0.5,0.7,1.2,0.7,2.2v0.5c0,1.3-0.4,2.2-1.3,2.6v0c1,0.4,1.5,1.3,1.5,2.7
				v1c0,1-0.3,1.7-0.8,2.3c-0.5,0.5-1.3,0.8-2.3,0.8H74V87.3H77.1z M77,89.1h-1v3.4h0.8c0.4,0,0.7-0.1,0.9-0.3
				c0.2-0.2,0.3-0.6,0.3-1v-0.7C78.1,89.6,77.7,89.1,77,89.1z M77,94.4h-0.9v3.9h1.2c0.4,0,0.6-0.1,0.8-0.3c0.2-0.2,0.3-0.5,0.3-1
				v-1.1c0-0.6-0.1-1-0.3-1.2C77.8,94.5,77.4,94.4,77,94.4z"/>
			<path class="st0" d="M81.5,100.2V87.3h2v11h3.3v1.8H81.5z"/>
			<path class="st0" d="M89.7,89.1v3.6h2.8v1.8h-2.8v3.8h3.5v1.8h-5.5V87.3h5.5v1.8H89.7z"/>
			<path class="st0" d="M94.2,90.4c0-1,0.3-1.8,0.8-2.4c0.5-0.6,1.2-0.8,2.2-0.8c1,0,1.7,0.3,2.2,0.8c0.5,0.6,0.8,1.4,0.8,2.4v0.4
				h-1.9v-0.5c0-0.8-0.3-1.3-1-1.3c-0.7,0-1,0.4-1,1.3c0,0.5,0.1,0.9,0.4,1.3c0.3,0.4,0.7,0.9,1.3,1.5c0.8,0.7,1.4,1.4,1.7,2
				c0.3,0.6,0.5,1.3,0.5,2c0,1-0.3,1.8-0.8,2.4s-1.3,0.8-2.2,0.8c-1,0-1.7-0.3-2.2-0.8s-0.8-1.4-0.8-2.4v-0.8h1.9v0.9
				c0,0.8,0.3,1.2,1,1.2c0.7,0,1-0.4,1-1.2c0-0.5-0.1-0.9-0.4-1.3c-0.3-0.4-0.7-0.9-1.4-1.5c-0.8-0.7-1.4-1.4-1.7-2
				C94.4,91.8,94.2,91.1,94.2,90.4z"/>
		</g>
	</g>
</g>
<g>
	<polygon class="st1" points="-203.4,289.8 -256.6,343 -218.8,380.7 -217.9,380.7 -217.9,330.9 -212.7,330.9 -212.7,380.7 
		-206.4,380.7 -206.4,318 -201.2,318 -201.2,380.7 -194.1,380.7 -194.1,330.9 -188.9,330.9 -188.9,380.7 -188,380.7 -150.2,343 	"/>
	<g>
		<g>
			<path d="M-261,397.1c0-1.3,0.3-2.3,0.9-3c0.6-0.7,1.6-1.1,2.8-1.1c1.2,0,2.2,0.4,2.8,1.1c0.6,0.7,0.9,1.7,0.9,3v0.5h-2.4V397
				c0-1.1-0.4-1.6-1.3-1.6s-1.3,0.5-1.3,1.6c0,0.6,0.2,1.2,0.5,1.7c0.3,0.5,0.9,1.1,1.7,1.8c1,0.9,1.8,1.8,2.2,2.5
				c0.4,0.8,0.6,1.6,0.6,2.5c0,1.3-0.3,2.3-1,3s-1.6,1-2.8,1c-1.2,0-2.2-0.3-2.8-1c-0.6-0.7-1-1.7-1-3v-1h2.4v1.2
				c0,1,0.4,1.6,1.3,1.6c0.9,0,1.3-0.5,1.3-1.6c0-0.6-0.2-1.2-0.5-1.7c-0.3-0.5-0.9-1.1-1.7-1.8c-1-0.9-1.8-1.8-2.2-2.5
				C-260.8,398.9-261,398.1-261,397.1z"/>
			<path d="M-252.2,405.5v-8.4c0-1.3,0.3-2.3,1-3c0.7-0.7,1.6-1.1,2.9-1.1c1.2,0,2.2,0.4,2.9,1.1c0.7,0.7,1,1.7,1,3v8.4
				c0,1.3-0.3,2.3-1,3c-0.7,0.7-1.6,1.1-2.9,1.1c-1.2,0-2.2-0.4-2.9-1.1C-251.9,407.8-252.2,406.8-252.2,405.5z M-249.7,397v8.7
				c0,1.1,0.4,1.6,1.3,1.6c0.9,0,1.3-0.5,1.3-1.6V397c0-1.1-0.4-1.6-1.3-1.6C-249.3,395.4-249.7,395.9-249.7,397z"/>
			<path d="M-243.2,397.1c0-1.3,0.3-2.3,0.9-3c0.6-0.7,1.6-1.1,2.8-1.1c1.2,0,2.2,0.4,2.8,1.1c0.6,0.7,0.9,1.7,0.9,3v0.5h-2.4V397
				c0-1.1-0.4-1.6-1.3-1.6c-0.8,0-1.3,0.5-1.3,1.6c0,0.6,0.2,1.2,0.5,1.7c0.3,0.5,0.9,1.1,1.7,1.8c1,0.9,1.8,1.8,2.2,2.5
				s0.6,1.6,0.6,2.5c0,1.3-0.3,2.3-1,3s-1.6,1-2.8,1c-1.2,0-2.2-0.3-2.8-1s-1-1.7-1-3v-1h2.4v1.2c0,1,0.4,1.6,1.3,1.6
				c0.9,0,1.3-0.5,1.3-1.6c0-0.6-0.2-1.2-0.5-1.7c-0.3-0.5-0.9-1.1-1.7-1.8c-1-0.9-1.8-1.8-2.2-2.5
				C-243,398.9-243.2,398.1-243.2,397.1z"/>
			<path d="M-230.7,393.3l1.8,11.5h0l1.7-11.5h3.5v16.2h-2.4v-11.6h0l-1.7,11.6h-2.4L-232,398h0v11.4h-2.2v-16.2H-230.7z"/>
			<path d="M-216.1,393.3l2.6,16.2h-2.6l-0.4-2.9h-3.1l-0.4,2.9h-2.3l2.6-16.2H-216.1z M-218.1,396.1l-1.2,8.2h2.4L-218.1,396.1
				L-218.1,396.1z"/>
			<path d="M-205.3,393.3l1.8,11.5h0l1.7-11.5h3.5v16.2h-2.4v-11.6h0l-1.7,11.6h-2.4l-1.8-11.4h0v11.4h-2.2v-16.2H-205.3z"/>
			<path d="M-196.4,393.3h2.5v12.5c0,1,0.4,1.6,1.3,1.6c0.9,0,1.3-0.5,1.3-1.6v-12.5h2.4v12.3c0,1.3-0.3,2.3-1,3s-1.6,1.1-2.8,1.1
				c-1.2,0-2.2-0.4-2.8-1.1s-1-1.7-1-3V393.3z"/>
			<path d="M-184.6,395.6v4.5h3.5v2.3h-3.5v4.7h4.4v2.3h-6.9v-16.2h6.9v2.3H-184.6z"/>
			<path d="M-174.8,393.3c1.3,0,2.3,0.3,2.9,0.9c0.6,0.6,0.9,1.5,0.9,2.8v0.6c0,1.6-0.5,2.7-1.6,3.2v0c1.3,0.5,1.9,1.6,1.9,3.4v1.3
				c0,1.2-0.3,2.2-1,2.9c-0.7,0.7-1.6,1-2.9,1h-4v-16.2H-174.8z M-174.9,395.6h-1.2v4.3h1c0.5,0,0.9-0.1,1.1-0.4
				c0.3-0.3,0.4-0.7,0.4-1.3v-0.9C-173.6,396.1-174,395.6-174.9,395.6z M-175,402.1h-1.1v5h1.5c0.4,0,0.8-0.1,1-0.4
				c0.2-0.2,0.3-0.7,0.3-1.2v-1.4c0-0.7-0.1-1.3-0.4-1.5C-173.9,402.3-174.4,402.1-175,402.1z"/>
			<path d="M-169.2,409.4v-16.2h2.5v13.9h4.2v2.3H-169.2z"/>
			<path d="M-158.9,395.6v4.5h3.5v2.3h-3.5v4.7h4.4v2.3h-6.9v-16.2h6.9v2.3H-158.9z"/>
			<path d="M-153.2,397.1c0-1.3,0.3-2.3,0.9-3c0.6-0.7,1.6-1.1,2.8-1.1c1.2,0,2.2,0.4,2.8,1.1c0.6,0.7,0.9,1.7,0.9,3v0.5h-2.4V397
				c0-1.1-0.4-1.6-1.3-1.6c-0.8,0-1.3,0.5-1.3,1.6c0,0.6,0.2,1.2,0.5,1.7c0.3,0.5,0.9,1.1,1.7,1.8c1,0.9,1.8,1.8,2.2,2.5
				s0.6,1.6,0.6,2.5c0,1.3-0.3,2.3-1,3s-1.6,1-2.8,1c-1.2,0-2.2-0.3-2.8-1s-1-1.7-1-3v-1h2.4v1.2c0,1,0.4,1.6,1.3,1.6
				c0.9,0,1.3-0.5,1.3-1.6c0-0.6-0.2-1.2-0.5-1.7c-0.3-0.5-0.9-1.1-1.7-1.8c-1-0.9-1.8-1.8-2.2-2.5
				C-153,398.9-153.2,398.1-153.2,397.1z"/>
		</g>
	</g>
</g>
<g>
	<g>
		<path class="st2" d="M-187.7,548.9h-2v-49.8h-3.7v49.8h-8.6v-62.7h-3.7v62.7h-7.7v-49.8h-3.7v49.8h-2l-38.5-38.5l54.2-54.2
			l54.2,54.2L-187.7,548.9z M-200.5,547.4h5.6v-49.8h6.7v49.7l36.9-36.9l-52.1-52.1l-52.1,52.1l36.9,36.9v-49.7h6.7v49.8h4.7v-62.7
			h6.7V547.4z"/>
	</g>
	<g>
		<g>
			<path d="M-261,564.6c0-1.3,0.3-2.3,0.9-3c0.6-0.7,1.6-1.1,2.8-1.1c1.2,0,2.2,0.4,2.8,1.1c0.6,0.7,0.9,1.7,0.9,3v0.5h-2.4v-0.7
				c0-1.1-0.4-1.6-1.3-1.6s-1.3,0.5-1.3,1.6c0,0.6,0.2,1.2,0.5,1.7c0.3,0.5,0.9,1.1,1.7,1.8c1,0.9,1.8,1.8,2.2,2.5
				c0.4,0.8,0.6,1.6,0.6,2.5c0,1.3-0.3,2.3-1,3s-1.6,1-2.8,1c-1.2,0-2.2-0.3-2.8-1c-0.6-0.7-1-1.7-1-3v-1h2.4v1.2
				c0,1,0.4,1.6,1.3,1.6c0.9,0,1.3-0.5,1.3-1.6c0-0.6-0.2-1.2-0.5-1.7c-0.3-0.5-0.9-1.1-1.7-1.8c-1-0.9-1.8-1.8-2.2-2.5
				C-260.8,566.4-261,565.5-261,564.6z"/>
			<path d="M-252.2,573v-8.4c0-1.3,0.3-2.3,1-3c0.7-0.7,1.6-1.1,2.9-1.1c1.2,0,2.2,0.4,2.9,1.1c0.7,0.7,1,1.7,1,3v8.4
				c0,1.3-0.3,2.3-1,3c-0.7,0.7-1.6,1.1-2.9,1.1c-1.2,0-2.2-0.4-2.9-1.1C-251.9,575.3-252.2,574.3-252.2,573z M-249.7,564.4v8.7
				c0,1.1,0.4,1.6,1.3,1.6c0.9,0,1.3-0.5,1.3-1.6v-8.7c0-1.1-0.4-1.6-1.3-1.6C-249.3,562.8-249.7,563.4-249.7,564.4z"/>
			<path d="M-243.2,564.6c0-1.3,0.3-2.3,0.9-3c0.6-0.7,1.6-1.1,2.8-1.1c1.2,0,2.2,0.4,2.8,1.1c0.6,0.7,0.9,1.7,0.9,3v0.5h-2.4v-0.7
				c0-1.1-0.4-1.6-1.3-1.6c-0.8,0-1.3,0.5-1.3,1.6c0,0.6,0.2,1.2,0.5,1.7c0.3,0.5,0.9,1.1,1.7,1.8c1,0.9,1.8,1.8,2.2,2.5
				s0.6,1.6,0.6,2.5c0,1.3-0.3,2.3-1,3s-1.6,1-2.8,1c-1.2,0-2.2-0.3-2.8-1s-1-1.7-1-3v-1h2.4v1.2c0,1,0.4,1.6,1.3,1.6
				c0.9,0,1.3-0.5,1.3-1.6c0-0.6-0.2-1.2-0.5-1.7c-0.3-0.5-0.9-1.1-1.7-1.8c-1-0.9-1.8-1.8-2.2-2.5
				C-243,566.4-243.2,565.5-243.2,564.6z"/>
			<path d="M-230.7,560.7l1.8,11.5h0l1.7-11.5h3.5v16.2h-2.4v-11.6h0l-1.7,11.6h-2.4l-1.8-11.4h0v11.4h-2.2v-16.2H-230.7z"/>
			<path d="M-216.1,560.7l2.6,16.2h-2.6l-0.4-2.9h-3.1l-0.4,2.9h-2.3l2.6-16.2H-216.1z M-218.1,563.6l-1.2,8.2h2.4L-218.1,563.6
				L-218.1,563.6z"/>
			<path d="M-205.3,560.7l1.8,11.5h0l1.7-11.5h3.5v16.2h-2.4v-11.6h0l-1.7,11.6h-2.4l-1.8-11.4h0v11.4h-2.2v-16.2H-205.3z"/>
			<path d="M-196.4,560.7h2.5v12.5c0,1,0.4,1.6,1.3,1.6c0.9,0,1.3-0.5,1.3-1.6v-12.5h2.4V573c0,1.3-0.3,2.3-1,3
				c-0.6,0.7-1.6,1.1-2.8,1.1c-1.2,0-2.2-0.4-2.8-1.1c-0.6-0.7-1-1.7-1-3V560.7z"/>
			<path d="M-184.6,563v4.5h3.5v2.3h-3.5v4.7h4.4v2.3h-6.9v-16.2h6.9v2.3H-184.6z"/>
			<path d="M-174.8,560.7c1.3,0,2.3,0.3,2.9,0.9c0.6,0.6,0.9,1.5,0.9,2.8v0.6c0,1.6-0.5,2.7-1.6,3.2v0c1.3,0.5,1.9,1.6,1.9,3.4v1.3
				c0,1.2-0.3,2.2-1,2.9c-0.7,0.7-1.6,1-2.9,1h-4v-16.2H-174.8z M-174.9,563h-1.2v4.3h1c0.5,0,0.9-0.1,1.1-0.4
				c0.3-0.3,0.4-0.7,0.4-1.3v-0.9C-173.6,563.6-174,563-174.9,563z M-175,569.6h-1.1v5h1.5c0.4,0,0.8-0.1,1-0.4
				c0.2-0.2,0.3-0.7,0.3-1.2v-1.4c0-0.7-0.1-1.3-0.4-1.5C-173.9,569.8-174.4,569.6-175,569.6z"/>
			<path d="M-169.2,576.9v-16.2h2.5v13.9h4.2v2.3H-169.2z"/>
			<path d="M-158.9,563v4.5h3.5v2.3h-3.5v4.7h4.4v2.3h-6.9v-16.2h6.9v2.3H-158.9z"/>
			<path d="M-153.2,564.6c0-1.3,0.3-2.3,0.9-3c0.6-0.7,1.6-1.1,2.8-1.1c1.2,0,2.2,0.4,2.8,1.1c0.6,0.7,0.9,1.7,0.9,3v0.5h-2.4v-0.7
				c0-1.1-0.4-1.6-1.3-1.6c-0.8,0-1.3,0.5-1.3,1.6c0,0.6,0.2,1.2,0.5,1.7c0.3,0.5,0.9,1.1,1.7,1.8c1,0.9,1.8,1.8,2.2,2.5
				s0.6,1.6,0.6,2.5c0,1.3-0.3,2.3-1,3s-1.6,1-2.8,1c-1.2,0-2.2-0.3-2.8-1s-1-1.7-1-3v-1h2.4v1.2c0,1,0.4,1.6,1.3,1.6
				c0.9,0,1.3-0.5,1.3-1.6c0-0.6-0.2-1.2-0.5-1.7c-0.3-0.5-0.9-1.1-1.7-1.8c-1-0.9-1.8-1.8-2.2-2.5
				C-153,566.4-153.2,565.5-153.2,564.6z"/>
		</g>
	</g>
</g>
<g>
	<g>
		<path class="st1" d="M-187.7,715.9h-2V666h-3.7v49.8h-8.6v-62.7h-3.7v62.7h-7.7V666h-3.7v49.8h-2l-38.5-38.5l54.2-54.2l54.2,54.2
			L-187.7,715.9z M-200.5,714.4h5.6v-49.8h6.7v49.7l36.9-36.9l-52.1-52.1l-52.1,52.1l36.9,36.9v-49.7h6.7v49.8h4.7v-62.7h6.7V714.4z
			"/>
	</g>
	<g>
		<g>
			<path d="M-261,731.5c0-1.3,0.3-2.3,0.9-3c0.6-0.7,1.6-1.1,2.8-1.1c1.2,0,2.2,0.4,2.8,1.1c0.6,0.7,0.9,1.7,0.9,3v0.5h-2.4v-0.7
				c0-1.1-0.4-1.6-1.3-1.6s-1.3,0.5-1.3,1.6c0,0.6,0.2,1.2,0.5,1.7c0.3,0.5,0.9,1.1,1.7,1.8c1,0.9,1.8,1.8,2.2,2.5
				c0.4,0.8,0.6,1.6,0.6,2.5c0,1.3-0.3,2.3-1,3s-1.6,1-2.8,1c-1.2,0-2.2-0.3-2.8-1c-0.6-0.7-1-1.7-1-3v-1h2.4v1.2
				c0,1,0.4,1.6,1.3,1.6c0.9,0,1.3-0.5,1.3-1.6c0-0.6-0.2-1.2-0.5-1.7c-0.3-0.5-0.9-1.1-1.7-1.8c-1-0.9-1.8-1.8-2.2-2.5
				C-260.8,733.3-261,732.5-261,731.5z"/>
			<path d="M-252.2,739.9v-8.4c0-1.3,0.3-2.3,1-3c0.7-0.7,1.6-1.1,2.9-1.1c1.2,0,2.2,0.4,2.9,1.1c0.7,0.7,1,1.7,1,3v8.4
				c0,1.3-0.3,2.3-1,3c-0.7,0.7-1.6,1.1-2.9,1.1c-1.2,0-2.2-0.4-2.9-1.1C-251.9,742.2-252.2,741.2-252.2,739.9z M-249.7,731.4v8.7
				c0,1.1,0.4,1.6,1.3,1.6c0.9,0,1.3-0.5,1.3-1.6v-8.7c0-1.1-0.4-1.6-1.3-1.6C-249.3,729.8-249.7,730.3-249.7,731.4z"/>
			<path d="M-243.2,731.5c0-1.3,0.3-2.3,0.9-3c0.6-0.7,1.6-1.1,2.8-1.1c1.2,0,2.2,0.4,2.8,1.1c0.6,0.7,0.9,1.7,0.9,3v0.5h-2.4v-0.7
				c0-1.1-0.4-1.6-1.3-1.6c-0.8,0-1.3,0.5-1.3,1.6c0,0.6,0.2,1.2,0.5,1.7c0.3,0.5,0.9,1.1,1.7,1.8c1,0.9,1.8,1.8,2.2,2.5
				s0.6,1.6,0.6,2.5c0,1.3-0.3,2.3-1,3s-1.6,1-2.8,1c-1.2,0-2.2-0.3-2.8-1s-1-1.7-1-3v-1h2.4v1.2c0,1,0.4,1.6,1.3,1.6
				c0.9,0,1.3-0.5,1.3-1.6c0-0.6-0.2-1.2-0.5-1.7c-0.3-0.5-0.9-1.1-1.7-1.8c-1-0.9-1.8-1.8-2.2-2.5
				C-243,733.3-243.2,732.5-243.2,731.5z"/>
			<path d="M-230.7,727.7l1.8,11.5h0l1.7-11.5h3.5v16.2h-2.4v-11.6h0l-1.7,11.6h-2.4l-1.8-11.4h0v11.4h-2.2v-16.2H-230.7z"/>
			<path d="M-216.1,727.7l2.6,16.2h-2.6l-0.4-2.9h-3.1l-0.4,2.9h-2.3l2.6-16.2H-216.1z M-218.1,730.5l-1.2,8.2h2.4L-218.1,730.5
				L-218.1,730.5z"/>
			<path d="M-205.3,727.7l1.8,11.5h0l1.7-11.5h3.5v16.2h-2.4v-11.6h0l-1.7,11.6h-2.4l-1.8-11.4h0v11.4h-2.2v-16.2H-205.3z"/>
			<path d="M-196.4,727.7h2.5v12.5c0,1,0.4,1.6,1.3,1.6c0.9,0,1.3-0.5,1.3-1.6v-12.5h2.4V740c0,1.3-0.3,2.3-1,3s-1.6,1.1-2.8,1.1
				c-1.2,0-2.2-0.4-2.8-1.1s-1-1.7-1-3V727.7z"/>
			<path d="M-184.6,730v4.5h3.5v2.3h-3.5v4.7h4.4v2.3h-6.9v-16.2h6.9v2.3H-184.6z"/>
			<path d="M-174.8,727.7c1.3,0,2.3,0.3,2.9,0.9c0.6,0.6,0.9,1.5,0.9,2.8v0.6c0,1.6-0.5,2.7-1.6,3.2v0c1.3,0.5,1.9,1.6,1.9,3.4v1.3
				c0,1.2-0.3,2.2-1,2.9c-0.7,0.7-1.6,1-2.9,1h-4v-16.2H-174.8z M-174.9,730h-1.2v4.3h1c0.5,0,0.9-0.1,1.1-0.4
				c0.3-0.3,0.4-0.7,0.4-1.3v-0.9C-173.6,730.5-174,730-174.9,730z M-175,736.5h-1.1v5h1.5c0.4,0,0.8-0.1,1-0.4
				c0.2-0.2,0.3-0.7,0.3-1.2v-1.4c0-0.7-0.1-1.3-0.4-1.5C-173.9,736.7-174.4,736.5-175,736.5z"/>
			<path d="M-169.2,743.8v-16.2h2.5v13.9h4.2v2.3H-169.2z"/>
			<path d="M-158.9,730v4.5h3.5v2.3h-3.5v4.7h4.4v2.3h-6.9v-16.2h6.9v2.3H-158.9z"/>
			<path d="M-153.2,731.5c0-1.3,0.3-2.3,0.9-3c0.6-0.7,1.6-1.1,2.8-1.1c1.2,0,2.2,0.4,2.8,1.1c0.6,0.7,0.9,1.7,0.9,3v0.5h-2.4v-0.7
				c0-1.1-0.4-1.6-1.3-1.6c-0.8,0-1.3,0.5-1.3,1.6c0,0.6,0.2,1.2,0.5,1.7c0.3,0.5,0.9,1.1,1.7,1.8c1,0.9,1.8,1.8,2.2,2.5
				s0.6,1.6,0.6,2.5c0,1.3-0.3,2.3-1,3s-1.6,1-2.8,1c-1.2,0-2.2-0.3-2.8-1s-1-1.7-1-3v-1h2.4v1.2c0,1,0.4,1.6,1.3,1.6
				c0.9,0,1.3-0.5,1.3-1.6c0-0.6-0.2-1.2-0.5-1.7c-0.3-0.5-0.9-1.1-1.7-1.8c-1-0.9-1.8-1.8-2.2-2.5
				C-153,733.3-153.2,732.5-153.2,731.5z"/>
		</g>
	</g>
</g>
<g>
	<text transform="matrix(1 0 0 1 -264.7796 57.4131)" style="fill:#808285; font-family:'MyriadPro-Regular'; font-size:12px;">Isologotipo: versión final</text>
</g>
<g>
	<text transform="matrix(1 0 0 1 -20.095 178.9116)" style="fill:#808285; font-family:'MyriadPro-Regular'; font-size:12px;">#c7133b</text>
</g>
<rect x="-49.3" y="166.5" class="st2" width="15.3" height="15.9"/>
<text transform="matrix(1 0 0 1 557.1573 540)"><tspan x="0" y="0" style="font-family:'MyriadPro-Regular'; font-size:12px;">html{</tspan><tspan x="0" y="14.4" style="font-family:'MyriadPro-Regular'; font-size:12px;">  height: 100%;</tspan><tspan x="0" y="28.8" style="font-family:'MyriadPro-Regular'; font-size:12px;">}</tspan><tspan x="0" y="43.2" style="font-family:'MyriadPro-Regular'; font-size:12px;">body{</tspan><tspan x="0" y="57.6" style="font-family:'MyriadPro-Regular'; font-size:12px;">  min-height: 100%;</tspan><tspan x="0" y="72" style="font-family:'MyriadPro-Regular'; font-size:12px;">  position: relative;</tspan><tspan x="0" y="86.4" style="font-family:'MyriadPro-Regular'; font-size:12px;">  background-color: #000;</tspan><tspan x="0" y="100.8" style="font-family:'MyriadPro-Regular'; font-size:12px;">  font-family: &apos;Montserrat&apos;, sans-serif;</tspan><tspan x="0" y="115.2" style="font-family:'MyriadPro-Regular'; font-size:12px;">  font-size: 1em;</tspan><tspan x="0" y="129.6" style="font-family:'MyriadPro-Regular'; font-size:12px;">  color: #fff;</tspan><tspan x="0" y="144" style="font-family:'MyriadPro-Regular'; font-size:12px;">}</tspan></text>
</svg>
