<?xml version="1.0" encoding="utf-8"?>
<!-- Generator: Adobe Illustrator 21.0.0, SVG Export Plug-In . SVG Version: 6.00 Build 0)  -->
<svg version="1.1" id="Layer_1" xmlns="http://www.w3.org/2000/svg" xmlns:xlink="http://www.w3.org/1999/xlink" x="0px" y="0px"
	 viewBox="0 0 59 50" style="enable-background:new 0 0 59 50;" xml:space="preserve">
<style type="text/css">
	.st0{fill:#C71E46;}
	.st1{fill:#FFFFFF;}
	.st2{fill:#3D3D3D;}
</style>
<g>
	<polygon class="st0" points="29.5,2 2.1,29.4 21.6,48.8 22,48.8 22,23.1 24.7,23.1 24.7,48.8 27.9,48.8 27.9,16.5 30.6,16.5 
		30.6,48.8 34.3,48.8 34.3,23.1 37,23.1 37,48.8 37.4,48.8 56.9,29.4 	"/>
	<g>
		<g>
			<path class="st1" d="M-0.1,57.2c0-0.7,0.2-1.2,0.5-1.6c0.3-0.4,0.8-0.5,1.4-0.5c0.6,0,1.1,0.2,1.4,0.5c0.3,0.4,0.5,0.9,0.5,1.6
				v0.3H2.5v-0.3c0-0.5-0.2-0.8-0.7-0.8c-0.4,0-0.7,0.3-0.7,0.8c0,0.3,0.1,0.6,0.2,0.9c0.2,0.3,0.5,0.6,0.9,1
				c0.5,0.5,0.9,0.9,1.1,1.3c0.2,0.4,0.3,0.8,0.3,1.3c0,0.7-0.2,1.2-0.5,1.6s-0.8,0.5-1.4,0.5c-0.6,0-1.1-0.2-1.4-0.5
				s-0.5-0.9-0.5-1.6V61h1.2v0.6c0,0.5,0.2,0.8,0.7,0.8c0.5,0,0.7-0.3,0.7-0.8c0-0.3-0.1-0.6-0.2-0.9c-0.2-0.3-0.5-0.6-0.9-1
				c-0.5-0.5-0.9-0.9-1.1-1.3C0,58.1-0.1,57.7-0.1,57.2z"/>
			<path class="st1" d="M4.4,61.6v-4.3c0-0.7,0.2-1.2,0.5-1.5c0.3-0.4,0.8-0.5,1.5-0.5c0.6,0,1.1,0.2,1.5,0.5
				c0.3,0.4,0.5,0.9,0.5,1.5v4.3c0,0.7-0.2,1.2-0.5,1.5c-0.3,0.4-0.8,0.5-1.5,0.5c-0.6,0-1.1-0.2-1.5-0.5
				C4.5,62.7,4.4,62.2,4.4,61.6z M5.7,57.1v4.5c0,0.5,0.2,0.8,0.7,0.8c0.5,0,0.7-0.3,0.7-0.8v-4.5c0-0.5-0.2-0.8-0.7-0.8
				C5.9,56.3,5.7,56.6,5.7,57.1z"/>
			<path class="st1" d="M9,57.2c0-0.7,0.2-1.2,0.5-1.6c0.3-0.4,0.8-0.5,1.4-0.5c0.6,0,1.1,0.2,1.4,0.5c0.3,0.4,0.5,0.9,0.5,1.6v0.3
				h-1.2v-0.3c0-0.5-0.2-0.8-0.7-0.8s-0.7,0.3-0.7,0.8c0,0.3,0.1,0.6,0.2,0.9c0.2,0.3,0.5,0.6,0.9,1c0.5,0.5,0.9,0.9,1.1,1.3
				c0.2,0.4,0.3,0.8,0.3,1.3c0,0.7-0.2,1.2-0.5,1.6c-0.3,0.4-0.8,0.5-1.4,0.5c-0.6,0-1.1-0.2-1.4-0.5C9.1,62.7,9,62.2,9,61.6V61h1.2
				v0.6c0,0.5,0.2,0.8,0.7,0.8c0.5,0,0.7-0.3,0.7-0.8c0-0.3-0.1-0.6-0.2-0.9c-0.2-0.3-0.5-0.6-0.9-1c-0.5-0.5-0.9-0.9-1.1-1.3
				C9.1,58.1,9,57.7,9,57.2z"/>
			<path class="st1" d="M15.4,55.2l1,5.9h0l0.9-5.9h1.8v8.3h-1.2v-6h0l-0.9,6h-1.2l-1-5.9h0v5.9h-1.1v-8.3H15.4z"/>
			<path class="st1" d="M22.9,55.2l1.3,8.3H23L22.7,62h-1.6l-0.2,1.5h-1.2l1.3-8.3H22.9z M21.9,56.7l-0.6,4.2h1.3L21.9,56.7
				L21.9,56.7z"/>
			<path class="st1" d="M28.5,55.2l0.9,5.9h0l0.9-5.9h1.8v8.3H31v-6h0l-0.9,6h-1.2l-0.9-5.9h0v5.9h-1.1v-8.3H28.5z"/>
			<path class="st1" d="M33.1,55.2h1.3v6.4c0,0.5,0.2,0.8,0.7,0.8c0.5,0,0.7-0.3,0.7-0.8v-6.4H37v6.3c0,0.7-0.2,1.2-0.5,1.6
				c-0.3,0.4-0.8,0.5-1.4,0.5c-0.6,0-1.1-0.2-1.4-0.5c-0.3-0.4-0.5-0.9-0.5-1.6V55.2z"/>
			<path class="st1" d="M39.2,56.4v2.3H41v1.2h-1.8v2.4h2.3v1.2h-3.6v-8.3h3.6v1.2H39.2z"/>
			<path class="st1" d="M44.2,55.2c0.7,0,1.2,0.2,1.5,0.5c0.3,0.3,0.5,0.8,0.5,1.4v0.3c0,0.8-0.3,1.4-0.8,1.7v0c0.6,0.3,1,0.8,1,1.8
				v0.7c0,0.6-0.2,1.1-0.5,1.5c-0.3,0.3-0.8,0.5-1.5,0.5h-2.1v-8.3H44.2z M44.2,56.4h-0.6v2.2h0.5c0.3,0,0.5-0.1,0.6-0.2
				c0.1-0.1,0.2-0.4,0.2-0.7v-0.5C44.9,56.7,44.6,56.4,44.2,56.4z M44.1,59.8h-0.6v2.6h0.7c0.2,0,0.4-0.1,0.5-0.2
				c0.1-0.1,0.2-0.3,0.2-0.6v-0.7c0-0.4-0.1-0.6-0.2-0.8C44.7,59.9,44.4,59.8,44.1,59.8z"/>
			<path class="st1" d="M47.1,63.6v-8.3h1.3v7.1h2.2v1.2H47.1z"/>
			<path class="st1" d="M52.4,56.4v2.3h1.8v1.2h-1.8v2.4h2.3v1.2h-3.6v-8.3h3.6v1.2H52.4z"/>
			<path class="st1" d="M55.3,57.2c0-0.7,0.2-1.2,0.5-1.6c0.3-0.4,0.8-0.5,1.4-0.5c0.6,0,1.1,0.2,1.4,0.5c0.3,0.4,0.5,0.9,0.5,1.6
				v0.3h-1.2v-0.3c0-0.5-0.2-0.8-0.7-0.8c-0.4,0-0.7,0.3-0.7,0.8c0,0.3,0.1,0.6,0.2,0.9c0.2,0.3,0.5,0.6,0.9,1
				c0.5,0.5,0.9,0.9,1.1,1.3c0.2,0.4,0.3,0.8,0.3,1.3c0,0.7-0.2,1.2-0.5,1.6s-0.8,0.5-1.4,0.5c-0.6,0-1.1-0.2-1.4-0.5
				c-0.3-0.4-0.5-0.9-0.5-1.6V61h1.2v0.6c0,0.5,0.2,0.8,0.7,0.8c0.5,0,0.7-0.3,0.7-0.8c0-0.3-0.1-0.6-0.2-0.9
				c-0.2-0.3-0.5-0.6-0.9-1c-0.5-0.5-0.9-0.9-1.1-1.3C55.4,58.1,55.3,57.7,55.3,57.2z"/>
		</g>
	</g>
</g>
<g>
	<polygon class="st2" points="-253.1,289.8 -306.2,343 -268.5,380.7 -267.6,380.7 -267.6,330.9 -262.3,330.9 -262.3,380.7 
		-256.1,380.7 -256.1,318 -250.9,318 -250.9,380.7 -243.8,380.7 -243.8,330.9 -238.5,330.9 -238.5,380.7 -237.6,380.7 -199.9,343 	
		"/>
	<g>
		<g>
			<path d="M-310.6,397.1c0-1.3,0.3-2.3,0.9-3c0.6-0.7,1.6-1.1,2.8-1.1c1.2,0,2.2,0.4,2.8,1.1c0.6,0.7,0.9,1.7,0.9,3v0.5h-2.4V397
				c0-1.1-0.4-1.6-1.3-1.6s-1.3,0.5-1.3,1.6c0,0.6,0.2,1.2,0.5,1.7c0.3,0.5,0.9,1.1,1.7,1.8c1,0.9,1.8,1.8,2.2,2.5s0.6,1.6,0.6,2.5
				c0,1.3-0.3,2.3-1,3c-0.6,0.7-1.6,1-2.8,1c-1.2,0-2.2-0.3-2.8-1c-0.6-0.7-1-1.7-1-3v-1h2.4v1.2c0,1,0.4,1.6,1.3,1.6
				c0.9,0,1.3-0.5,1.3-1.6c0-0.6-0.2-1.2-0.5-1.7c-0.3-0.5-0.9-1.1-1.7-1.8c-1-0.9-1.8-1.8-2.2-2.5
				C-310.4,398.9-310.6,398.1-310.6,397.1z"/>
			<path d="M-301.9,405.5v-8.4c0-1.3,0.3-2.3,1-3c0.7-0.7,1.6-1.1,2.9-1.1c1.2,0,2.2,0.4,2.9,1.1c0.7,0.7,1,1.7,1,3v8.4
				c0,1.3-0.3,2.3-1,3c-0.7,0.7-1.6,1.1-2.9,1.1c-1.2,0-2.2-0.4-2.9-1.1C-301.6,407.8-301.9,406.8-301.9,405.5z M-299.4,397v8.7
				c0,1.1,0.4,1.6,1.3,1.6c0.9,0,1.3-0.5,1.3-1.6V397c0-1.1-0.4-1.6-1.3-1.6C-298.9,395.4-299.4,395.9-299.4,397z"/>
			<path d="M-292.9,397.1c0-1.3,0.3-2.3,0.9-3c0.6-0.7,1.6-1.1,2.8-1.1c1.2,0,2.2,0.4,2.8,1.1c0.6,0.7,0.9,1.7,0.9,3v0.5h-2.4V397
				c0-1.1-0.4-1.6-1.3-1.6c-0.8,0-1.3,0.5-1.3,1.6c0,0.6,0.2,1.2,0.5,1.7c0.3,0.5,0.9,1.1,1.7,1.8c1,0.9,1.8,1.8,2.2,2.5
				s0.6,1.6,0.6,2.5c0,1.3-0.3,2.3-1,3c-0.6,0.7-1.6,1-2.8,1c-1.2,0-2.2-0.3-2.8-1c-0.6-0.7-1-1.7-1-3v-1h2.4v1.2
				c0,1,0.4,1.6,1.3,1.6c0.9,0,1.3-0.5,1.3-1.6c0-0.6-0.2-1.2-0.5-1.7c-0.3-0.5-0.9-1.1-1.7-1.8c-1-0.9-1.8-1.8-2.2-2.5
				C-292.7,398.9-292.9,398.1-292.9,397.1z"/>
			<path d="M-280.4,393.3l1.8,11.5h0l1.7-11.5h3.5v16.2h-2.4v-11.6h0l-1.7,11.6h-2.4l-1.8-11.4h0v11.4h-2.2v-16.2H-280.4z"/>
			<path d="M-265.8,393.3l2.6,16.2h-2.6l-0.4-2.9h-3.1l-0.4,2.9h-2.3l2.6-16.2H-265.8z M-267.8,396.1l-1.2,8.2h2.4L-267.8,396.1
				L-267.8,396.1z"/>
			<path d="M-254.9,393.3l1.8,11.5h0l1.7-11.5h3.5v16.2h-2.4v-11.6h0l-1.7,11.6h-2.4l-1.8-11.4h0v11.4h-2.2v-16.2H-254.9z"/>
			<path d="M-246.1,393.3h2.5v12.5c0,1,0.4,1.6,1.3,1.6c0.9,0,1.3-0.5,1.3-1.6v-12.5h2.4v12.3c0,1.3-0.3,2.3-1,3s-1.6,1.1-2.8,1.1
				c-1.2,0-2.2-0.4-2.8-1.1c-0.6-0.7-1-1.7-1-3V393.3z"/>
			<path d="M-234.2,395.6v4.5h3.5v2.3h-3.5v4.7h4.4v2.3h-6.9v-16.2h6.9v2.3H-234.2z"/>
			<path d="M-224.4,393.3c1.3,0,2.3,0.3,2.9,0.9c0.6,0.6,0.9,1.5,0.9,2.8v0.6c0,1.6-0.5,2.7-1.6,3.2v0c1.3,0.5,1.9,1.6,1.9,3.4v1.3
				c0,1.2-0.3,2.2-1,2.9c-0.7,0.7-1.6,1-2.9,1h-4v-16.2H-224.4z M-224.5,395.6h-1.2v4.3h1c0.5,0,0.9-0.1,1.1-0.4
				c0.3-0.3,0.4-0.7,0.4-1.3v-0.9C-223.2,396.1-223.6,395.6-224.5,395.6z M-224.6,402.1h-1.1v5h1.5c0.4,0,0.8-0.1,1-0.4
				c0.2-0.2,0.3-0.7,0.3-1.2v-1.4c0-0.7-0.1-1.3-0.4-1.5C-223.6,402.3-224,402.1-224.6,402.1z"/>
			<path d="M-218.9,409.4v-16.2h2.5v13.9h4.2v2.3H-218.9z"/>
			<path d="M-208.5,395.6v4.5h3.5v2.3h-3.5v4.7h4.4v2.3h-6.9v-16.2h6.9v2.3H-208.5z"/>
			<path d="M-202.9,397.1c0-1.3,0.3-2.3,0.9-3c0.6-0.7,1.6-1.1,2.8-1.1c1.2,0,2.2,0.4,2.8,1.1c0.6,0.7,0.9,1.7,0.9,3v0.5h-2.4V397
				c0-1.1-0.4-1.6-1.3-1.6c-0.8,0-1.3,0.5-1.3,1.6c0,0.6,0.2,1.2,0.5,1.7c0.3,0.5,0.9,1.1,1.7,1.8c1,0.9,1.8,1.8,2.2,2.5
				s0.6,1.6,0.6,2.5c0,1.3-0.3,2.3-1,3s-1.6,1-2.8,1c-1.2,0-2.2-0.3-2.8-1s-1-1.7-1-3v-1h2.4v1.2c0,1,0.4,1.6,1.3,1.6
				c0.9,0,1.3-0.5,1.3-1.6c0-0.6-0.2-1.2-0.5-1.7c-0.3-0.5-0.9-1.1-1.7-1.8c-1-0.9-1.8-1.8-2.2-2.5
				C-202.7,398.9-202.9,398.1-202.9,397.1z"/>
		</g>
	</g>
</g>
<g>
	<g>
		<path class="st0" d="M-237.3,548.9h-2v-49.8h-3.7v49.8h-8.6v-62.7h-3.7v62.7h-7.7v-49.8h-3.7v49.8h-2l-38.5-38.5l54.2-54.2
			l54.2,54.2L-237.3,548.9z M-250.1,547.4h5.6v-49.8h6.7v49.7l36.9-36.9l-52.1-52.1l-52.1,52.1l36.9,36.9v-49.7h6.7v49.8h4.7v-62.7
			h6.7V547.4z"/>
	</g>
	<g>
		<g>
			<path d="M-310.6,564.6c0-1.3,0.3-2.3,0.9-3c0.6-0.7,1.6-1.1,2.8-1.1c1.2,0,2.2,0.4,2.8,1.1c0.6,0.7,0.9,1.7,0.9,3v0.5h-2.4v-0.7
				c0-1.1-0.4-1.6-1.3-1.6s-1.3,0.5-1.3,1.6c0,0.6,0.2,1.2,0.5,1.7c0.3,0.5,0.9,1.1,1.7,1.8c1,0.9,1.8,1.8,2.2,2.5s0.6,1.6,0.6,2.5
				c0,1.3-0.3,2.3-1,3c-0.6,0.7-1.6,1-2.8,1c-1.2,0-2.2-0.3-2.8-1c-0.6-0.7-1-1.7-1-3v-1h2.4v1.2c0,1,0.4,1.6,1.3,1.6
				c0.9,0,1.3-0.5,1.3-1.6c0-0.6-0.2-1.2-0.5-1.7c-0.3-0.5-0.9-1.1-1.7-1.8c-1-0.9-1.8-1.8-2.2-2.5
				C-310.4,566.4-310.6,565.5-310.6,564.6z"/>
			<path d="M-301.9,573v-8.4c0-1.3,0.3-2.3,1-3c0.7-0.7,1.6-1.1,2.9-1.1c1.2,0,2.2,0.4,2.9,1.1c0.7,0.7,1,1.7,1,3v8.4
				c0,1.3-0.3,2.3-1,3c-0.7,0.7-1.6,1.1-2.9,1.1c-1.2,0-2.2-0.4-2.9-1.1C-301.6,575.3-301.9,574.3-301.9,573z M-299.4,564.4v8.7
				c0,1.1,0.4,1.6,1.3,1.6c0.9,0,1.3-0.5,1.3-1.6v-8.7c0-1.1-0.4-1.6-1.3-1.6C-298.9,562.8-299.4,563.4-299.4,564.4z"/>
			<path d="M-292.9,564.6c0-1.3,0.3-2.3,0.9-3c0.6-0.7,1.6-1.1,2.8-1.1c1.2,0,2.2,0.4,2.8,1.1c0.6,0.7,0.9,1.7,0.9,3v0.5h-2.4v-0.7
				c0-1.1-0.4-1.6-1.3-1.6c-0.8,0-1.3,0.5-1.3,1.6c0,0.6,0.2,1.2,0.5,1.7c0.3,0.5,0.9,1.1,1.7,1.8c1,0.9,1.8,1.8,2.2,2.5
				s0.6,1.6,0.6,2.5c0,1.3-0.3,2.3-1,3c-0.6,0.7-1.6,1-2.8,1c-1.2,0-2.2-0.3-2.8-1c-0.6-0.7-1-1.7-1-3v-1h2.4v1.2
				c0,1,0.4,1.6,1.3,1.6c0.9,0,1.3-0.5,1.3-1.6c0-0.6-0.2-1.2-0.5-1.7c-0.3-0.5-0.9-1.1-1.7-1.8c-1-0.9-1.8-1.8-2.2-2.5
				C-292.7,566.4-292.9,565.5-292.9,564.6z"/>
			<path d="M-280.4,560.7l1.8,11.5h0l1.7-11.5h3.5v16.2h-2.4v-11.6h0l-1.7,11.6h-2.4l-1.8-11.4h0v11.4h-2.2v-16.2H-280.4z"/>
			<path d="M-265.8,560.7l2.6,16.2h-2.6l-0.4-2.9h-3.1l-0.4,2.9h-2.3l2.6-16.2H-265.8z M-267.8,563.6l-1.2,8.2h2.4L-267.8,563.6
				L-267.8,563.6z"/>
			<path d="M-254.9,560.7l1.8,11.5h0l1.7-11.5h3.5v16.2h-2.4v-11.6h0l-1.7,11.6h-2.4l-1.8-11.4h0v11.4h-2.2v-16.2H-254.9z"/>
			<path d="M-246.1,560.7h2.5v12.5c0,1,0.4,1.6,1.3,1.6c0.9,0,1.3-0.5,1.3-1.6v-12.5h2.4V573c0,1.3-0.3,2.3-1,3
				c-0.6,0.7-1.6,1.1-2.8,1.1c-1.2,0-2.2-0.4-2.8-1.1c-0.6-0.7-1-1.7-1-3V560.7z"/>
			<path d="M-234.2,563v4.5h3.5v2.3h-3.5v4.7h4.4v2.3h-6.9v-16.2h6.9v2.3H-234.2z"/>
			<path d="M-224.4,560.7c1.3,0,2.3,0.3,2.9,0.9c0.6,0.6,0.9,1.5,0.9,2.8v0.6c0,1.6-0.5,2.7-1.6,3.2v0c1.3,0.5,1.9,1.6,1.9,3.4v1.3
				c0,1.2-0.3,2.2-1,2.9c-0.7,0.7-1.6,1-2.9,1h-4v-16.2H-224.4z M-224.5,563h-1.2v4.3h1c0.5,0,0.9-0.1,1.1-0.4
				c0.3-0.3,0.4-0.7,0.4-1.3v-0.9C-223.2,563.6-223.6,563-224.5,563z M-224.6,569.6h-1.1v5h1.5c0.4,0,0.8-0.1,1-0.4
				c0.2-0.2,0.3-0.7,0.3-1.2v-1.4c0-0.7-0.1-1.3-0.4-1.5S-224,569.6-224.6,569.6z"/>
			<path d="M-218.9,576.9v-16.2h2.5v13.9h4.2v2.3H-218.9z"/>
			<path d="M-208.5,563v4.5h3.5v2.3h-3.5v4.7h4.4v2.3h-6.9v-16.2h6.9v2.3H-208.5z"/>
			<path d="M-202.9,564.6c0-1.3,0.3-2.3,0.9-3c0.6-0.7,1.6-1.1,2.8-1.1c1.2,0,2.2,0.4,2.8,1.1c0.6,0.7,0.9,1.7,0.9,3v0.5h-2.4v-0.7
				c0-1.1-0.4-1.6-1.3-1.6c-0.8,0-1.3,0.5-1.3,1.6c0,0.6,0.2,1.2,0.5,1.7c0.3,0.5,0.9,1.1,1.7,1.8c1,0.9,1.8,1.8,2.2,2.5
				s0.6,1.6,0.6,2.5c0,1.3-0.3,2.3-1,3s-1.6,1-2.8,1c-1.2,0-2.2-0.3-2.8-1s-1-1.7-1-3v-1h2.4v1.2c0,1,0.4,1.6,1.3,1.6
				c0.9,0,1.3-0.5,1.3-1.6c0-0.6-0.2-1.2-0.5-1.7c-0.3-0.5-0.9-1.1-1.7-1.8c-1-0.9-1.8-1.8-2.2-2.5
				C-202.7,566.4-202.9,565.5-202.9,564.6z"/>
		</g>
	</g>
</g>
<g>
	<g>
		<path class="st2" d="M-237.3,715.9h-2V666h-3.7v49.8h-8.6v-62.7h-3.7v62.7h-7.7V666h-3.7v49.8h-2l-38.5-38.5l54.2-54.2l54.2,54.2
			L-237.3,715.9z M-250.1,714.4h5.6v-49.8h6.7v49.7l36.9-36.9l-52.1-52.1l-52.1,52.1l36.9,36.9v-49.7h6.7v49.8h4.7v-62.7h6.7V714.4z
			"/>
	</g>
	<g>
		<g>
			<path d="M-310.6,731.5c0-1.3,0.3-2.3,0.9-3c0.6-0.7,1.6-1.1,2.8-1.1c1.2,0,2.2,0.4,2.8,1.1c0.6,0.7,0.9,1.7,0.9,3v0.5h-2.4v-0.7
				c0-1.1-0.4-1.6-1.3-1.6s-1.3,0.5-1.3,1.6c0,0.6,0.2,1.2,0.5,1.7c0.3,0.5,0.9,1.1,1.7,1.8c1,0.9,1.8,1.8,2.2,2.5s0.6,1.6,0.6,2.5
				c0,1.3-0.3,2.3-1,3c-0.6,0.7-1.6,1-2.8,1c-1.2,0-2.2-0.3-2.8-1c-0.6-0.7-1-1.7-1-3v-1h2.4v1.2c0,1,0.4,1.6,1.3,1.6
				c0.9,0,1.3-0.5,1.3-1.6c0-0.6-0.2-1.2-0.5-1.7c-0.3-0.5-0.9-1.1-1.7-1.8c-1-0.9-1.8-1.8-2.2-2.5
				C-310.4,733.3-310.6,732.5-310.6,731.5z"/>
			<path d="M-301.9,739.9v-8.4c0-1.3,0.3-2.3,1-3c0.7-0.7,1.6-1.1,2.9-1.1c1.2,0,2.2,0.4,2.9,1.1c0.7,0.7,1,1.7,1,3v8.4
				c0,1.3-0.3,2.3-1,3c-0.7,0.7-1.6,1.1-2.9,1.1c-1.2,0-2.2-0.4-2.9-1.1C-301.6,742.2-301.9,741.2-301.9,739.9z M-299.4,731.4v8.7
				c0,1.1,0.4,1.6,1.3,1.6c0.9,0,1.3-0.5,1.3-1.6v-8.7c0-1.1-0.4-1.6-1.3-1.6C-298.9,729.8-299.4,730.3-299.4,731.4z"/>
			<path d="M-292.9,731.5c0-1.3,0.3-2.3,0.9-3c0.6-0.7,1.6-1.1,2.8-1.1c1.2,0,2.2,0.4,2.8,1.1c0.6,0.7,0.9,1.7,0.9,3v0.5h-2.4v-0.7
				c0-1.1-0.4-1.6-1.3-1.6c-0.8,0-1.3,0.5-1.3,1.6c0,0.6,0.2,1.2,0.5,1.7c0.3,0.5,0.9,1.1,1.7,1.8c1,0.9,1.8,1.8,2.2,2.5
				s0.6,1.6,0.6,2.5c0,1.3-0.3,2.3-1,3c-0.6,0.7-1.6,1-2.8,1c-1.2,0-2.2-0.3-2.8-1c-0.6-0.7-1-1.7-1-3v-1h2.4v1.2
				c0,1,0.4,1.6,1.3,1.6c0.9,0,1.3-0.5,1.3-1.6c0-0.6-0.2-1.2-0.5-1.7c-0.3-0.5-0.9-1.1-1.7-1.8c-1-0.9-1.8-1.8-2.2-2.5
				C-292.7,733.3-292.9,732.5-292.9,731.5z"/>
			<path d="M-280.4,727.7l1.8,11.5h0l1.7-11.5h3.5v16.2h-2.4v-11.6h0l-1.7,11.6h-2.4l-1.8-11.4h0v11.4h-2.2v-16.2H-280.4z"/>
			<path d="M-265.8,727.7l2.6,16.2h-2.6l-0.4-2.9h-3.1l-0.4,2.9h-2.3l2.6-16.2H-265.8z M-267.8,730.5l-1.2,8.2h2.4L-267.8,730.5
				L-267.8,730.5z"/>
			<path d="M-254.9,727.7l1.8,11.5h0l1.7-11.5h3.5v16.2h-2.4v-11.6h0l-1.7,11.6h-2.4l-1.8-11.4h0v11.4h-2.2v-16.2H-254.9z"/>
			<path d="M-246.1,727.7h2.5v12.5c0,1,0.4,1.6,1.3,1.6c0.9,0,1.3-0.5,1.3-1.6v-12.5h2.4V740c0,1.3-0.3,2.3-1,3s-1.6,1.1-2.8,1.1
				c-1.2,0-2.2-0.4-2.8-1.1c-0.6-0.7-1-1.7-1-3V727.7z"/>
			<path d="M-234.2,730v4.5h3.5v2.3h-3.5v4.7h4.4v2.3h-6.9v-16.2h6.9v2.3H-234.2z"/>
			<path d="M-224.4,727.7c1.3,0,2.3,0.3,2.9,0.9c0.6,0.6,0.9,1.5,0.9,2.8v0.6c0,1.6-0.5,2.7-1.6,3.2v0c1.3,0.5,1.9,1.6,1.9,3.4v1.3
				c0,1.2-0.3,2.2-1,2.9c-0.7,0.7-1.6,1-2.9,1h-4v-16.2H-224.4z M-224.5,730h-1.2v4.3h1c0.5,0,0.9-0.1,1.1-0.4
				c0.3-0.3,0.4-0.7,0.4-1.3v-0.9C-223.2,730.5-223.6,730-224.5,730z M-224.6,736.5h-1.1v5h1.5c0.4,0,0.8-0.1,1-0.4
				c0.2-0.2,0.3-0.7,0.3-1.2v-1.4c0-0.7-0.1-1.3-0.4-1.5S-224,736.5-224.6,736.5z"/>
			<path d="M-218.9,743.8v-16.2h2.5v13.9h4.2v2.3H-218.9z"/>
			<path d="M-208.5,730v4.5h3.5v2.3h-3.5v4.7h4.4v2.3h-6.9v-16.2h6.9v2.3H-208.5z"/>
			<path d="M-202.9,731.5c0-1.3,0.3-2.3,0.9-3c0.6-0.7,1.6-1.1,2.8-1.1c1.2,0,2.2,0.4,2.8,1.1c0.6,0.7,0.9,1.7,0.9,3v0.5h-2.4v-0.7
				c0-1.1-0.4-1.6-1.3-1.6c-0.8,0-1.3,0.5-1.3,1.6c0,0.6,0.2,1.2,0.5,1.7c0.3,0.5,0.9,1.1,1.7,1.8c1,0.9,1.8,1.8,2.2,2.5
				s0.6,1.6,0.6,2.5c0,1.3-0.3,2.3-1,3s-1.6,1-2.8,1c-1.2,0-2.2-0.3-2.8-1s-1-1.7-1-3v-1h2.4v1.2c0,1,0.4,1.6,1.3,1.6
				c0.9,0,1.3-0.5,1.3-1.6c0-0.6-0.2-1.2-0.5-1.7c-0.3-0.5-0.9-1.1-1.7-1.8c-1-0.9-1.8-1.8-2.2-2.5
				C-202.7,733.3-202.9,732.5-202.9,731.5z"/>
		</g>
	</g>
</g>
<g>
	<text transform="matrix(1 0 0 1 -314.4336 57.4131)" style="fill:#808285; font-family:'MyriadPro-Regular'; font-size:12px;">Isologotipo: versión final</text>
</g>
<g>
	<text transform="matrix(1 0 0 1 -69.749 178.9116)" style="fill:#808285; font-family:'MyriadPro-Regular'; font-size:12px;">#c7133b</text>
</g>
<rect x="-98.9" y="166.5" class="st0" width="15.3" height="15.9"/>
<text transform="matrix(1 0 0 1 507.5034 540)"><tspan x="0" y="0" style="font-family:'MyriadPro-Regular'; font-size:12px;">html{</tspan><tspan x="0" y="14.4" style="font-family:'MyriadPro-Regular'; font-size:12px;">  height: 100%;</tspan><tspan x="0" y="28.8" style="font-family:'MyriadPro-Regular'; font-size:12px;">}</tspan><tspan x="0" y="43.2" style="font-family:'MyriadPro-Regular'; font-size:12px;">body{</tspan><tspan x="0" y="57.6" style="font-family:'MyriadPro-Regular'; font-size:12px;">  min-height: 100%;</tspan><tspan x="0" y="72" style="font-family:'MyriadPro-Regular'; font-size:12px;">  position: relative;</tspan><tspan x="0" y="86.4" style="font-family:'MyriadPro-Regular'; font-size:12px;">  background-color: #000;</tspan><tspan x="0" y="100.8" style="font-family:'MyriadPro-Regular'; font-size:12px;">  font-family: &apos;Montserrat&apos;, sans-serif;</tspan><tspan x="0" y="115.2" style="font-family:'MyriadPro-Regular'; font-size:12px;">  font-size: 1em;</tspan><tspan x="0" y="129.6" style="font-family:'MyriadPro-Regular'; font-size:12px;">  color: #fff;</tspan><tspan x="0" y="144" style="font-family:'MyriadPro-Regular'; font-size:12px;">}</tspan></text>
</svg>
